HIERARCHY
ROOT SpineBase
{
  OFFSET 0.000000 0.000000 0.000000
  CHANNELS 6 Xposition Yposition Zposition Zrotation Xrotation Yrotation
  JOINT SpineMid
  {
    OFFSET 0.000000 32.171728 0.000000
    CHANNELS 3 Zrotation Xrotation Yrotation
    JOINT SpineShoulder
    {
      OFFSET 0.014454 23.915315 -0.816696
      CHANNELS 3 Zrotation Xrotation Yrotation
      JOINT Neck
      {
        OFFSET 0.053374 7.916205 -0.590688
        CHANNELS 3 Zrotation Xrotation Yrotation
        JOINT Head
        {
          OFFSET -5.103842 14.293149 -0.404597
          CHANNELS 3 Zrotation Xrotation Yrotation
          End Site
          {
            OFFSET 0 0 0
          }
        }
      }
      JOINT ShoulderLeft
      {
        OFFSET -17.196391 -6.585158 6.211330
        CHANNELS 3 Zrotation Xrotation Yrotation
        JOINT ElbowLeft
        {
          OFFSET -3.270529 -31.214020 7.145824
          CHANNELS 3 Zrotation Xrotation Yrotation
          JOINT WristLeft
          {
            OFFSET -2.575767 -23.225967 -1.027584
            CHANNELS 3 Zrotation Xrotation Yrotation
            JOINT HandLeft
            {
              OFFSET -0.176028 -4.536133 0.592727
              CHANNELS 3 Zrotation Xrotation Yrotation
              JOINT HandTipLeft
              {
                OFFSET 0.440283 -6.135295 0.429132
                CHANNELS 3 Zrotation Xrotation Yrotation
                End Site
                {
                  OFFSET 0 0 0
                }
              }
              JOINT ThumbLeft
              {
                OFFSET 2.642543 -3.120660 1.566532
                CHANNELS 3 Zrotation Xrotation Yrotation
                End Site
                {
                  OFFSET 0 0 0
                }
              }
            }
          }
        }
      }
      JOINT ShoulderRight
      {
        OFFSET 14.484582 -3.489471 -8.698410
        CHANNELS 3 Zrotation Xrotation Yrotation
        JOINT ElbowRight
        {
          OFFSET 8.093665 -26.468408 -2.290183
          CHANNELS 3 Zrotation Xrotation Yrotation
          JOINT WristRight
          {
            OFFSET 0.261000 -23.047254 -6.003731
            CHANNELS 3 Zrotation Xrotation Yrotation
            JOINT HandRight
            {
              OFFSET -0.732970 -6.824680 -2.116248
              CHANNELS 3 Zrotation Xrotation Yrotation
              JOINT HandTipRight
              {
                OFFSET -0.105517 -6.230280 -1.887231
                CHANNELS 3 Zrotation Xrotation Yrotation
                End Site
                {
                  OFFSET 0 0 0
                }
              }
              JOINT ThumbRight
              {
                OFFSET 2.769578 -0.623883 -1.636176
                CHANNELS 3 Zrotation Xrotation Yrotation
                End Site
                {
                  OFFSET 0 0 0
                }
              }
            }
          }
        }
      }
    }
  }
  JOINT HipLeft
  {
    OFFSET -6.833937 0.051508 -1.016780
    CHANNELS 3 Zrotation Xrotation Yrotation
    JOINT KneeLeft
    {
      OFFSET 2.433110 -33.342639 4.856032
      CHANNELS 3 Zrotation Xrotation Yrotation
      JOINT AnkleLeft
      {
        OFFSET 5.655432 -37.642450 7.345084
        CHANNELS 3 Zrotation Xrotation Yrotation
        JOINT FootLeft
        {
          OFFSET -2.261481 -6.459588 -8.971174
          CHANNELS 3 Zrotation Xrotation Yrotation
          End Site
          {
            OFFSET 0 0 0
          }
        }
      }
    }
  }
  JOINT HipRight
  {
    OFFSET 7.711081 1.866299 -6.355397
    CHANNELS 3 Zrotation Xrotation Yrotation
    JOINT KneeRight
    {
      OFFSET 7.143091 -32.028422 0.965695
      CHANNELS 3 Zrotation Xrotation Yrotation
      JOINT AnkleRight
      {
        OFFSET 2.538523 -38.685685 8.258976
        CHANNELS 3 Zrotation Xrotation Yrotation
        JOINT FootRight
        {
          OFFSET -1.974002 -6.872602 -7.959727
          CHANNELS 3 Zrotation Xrotation Yrotation
          End Site
          {
            OFFSET 0 0 0
          }
        }
      }
    }
  }
}
MOTION
Frames: 10
Frame Time: 0.033333
-39.874019 79.491318 331.572738 -1.491313 4.063526 14.546527 -0.497567 0.185253 -14.582346 0.208812 0.447390 -0.080139 -6.500243 14.703957 7.933166 0.000000 0.000000 0.000000 -2.128862 2.379400 -1.484126 4.505713 6.098168 0.431367 -10.539027 21.722423 -0.506523 13.233848 -21.358385 8.051855 0.000000 0.000000 0.000000 0.000000 0.000000 0.000000 -10.392743 30.113864 15.111359 -93.321224 38.750410 32.606332 12.707671 -9.115261 -5.049125 -3.417534 -0.963531 3.780027 0.000000 0.000000 0.000000 0.000000 0.000000 0.000000 -1.786205 -3.268233 -14.940590 4.122942 -2.519339 0.389889 -0.995440 5.843091 -2.245665 0.000000 0.000000 0.000000 -2.162523 -3.878969 -14.793999 2.605236 0.240793 0.126160 -8.524838 22.701219 3.985093 0.000000 0.000000 0.000000
-40.124165 79.804301 331.546432 -1.645640 4.140387 15.727389 -0.348653 0.129101 -15.751885 0.275130 0.387525 -0.073616 -6.349070 14.806925 7.949169 0.000000 0.000000 0.000000 -2.311060 3.267449 -1.584907 4.320157 5.509010 0.575177 -7.996070 19.151901 -0.429520 10.335005 -18.300023 6.590759 0.000000 0.000000 0.000000 0.000000 0.000000 0.000000 -11.002738 29.256937 14.919444 -90.553439 38.167885 31.615764 11.298048 -10.639951 -6.750244 -1.792771 2.339738 6.971209 0.000000 0.000000 0.000000 0.000000 0.000000 0.000000 -1.460685 -3.213178 -16.048658 4.017949 -2.677828 0.384065 -1.267562 4.101710 -1.500542 0.000000 0.000000 0.000000 -1.996128 -4.640768 -16.108712 2.299865 0.878205 0.246542 -8.493861 25.102152 3.456130 0.000000 0.000000 0.000000
-40.399959 80.240064 331.533066 -1.772987 4.138666 17.363680 -0.179146 0.083737 -17.375930 0.333755 0.281752 -0.066292 -6.334590 15.145582 8.042125 0.000000 0.000000 0.000000 -2.440847 4.471148 -1.678206 4.237910 4.369864 0.753229 -7.028626 17.388072 -0.388002 8.589983 -17.781856 5.526057 0.000000 0.000000 0.000000 0.000000 0.000000 0.000000 -12.152109 28.443647 14.886018 -86.319155 37.288235 29.737962 7.255490 -8.407432 -7.233130 0.254731 0.728928 6.197701 0.000000 0.000000 0.000000 0.000000 0.000000 0.000000 -1.167863 -2.883646 -17.606023 3.953541 -3.080536 0.370596 -0.432112 0.657861 -1.663147 0.000000 0.000000 0.000000 -1.534269 -4.779055 -17.694203 1.803609 0.887897 0.237656 -7.383777 21.573275 2.986449 0.000000 0.000000 0.000000
-40.694631 80.778230 331.529862 -1.872196 4.094005 19.369510 -0.045476 0.068239 -19.372784 0.367854 0.164303 -0.062131 -6.314534 15.363854 8.078738 0.000000 0.000000 0.000000 -2.460504 5.741244 -1.752692 4.198118 2.861712 0.949229 -6.555945 16.202794 -0.368456 7.128112 -15.235422 4.814361 0.000000 0.000000 0.000000 0.000000 0.000000 0.000000 -12.109713 27.017025 14.168923 -83.571952 36.254443 28.961465 3.363917 -4.693779 -6.376293 1.526507 -2.830595 3.719712 0.000000 0.000000 0.000000 0.000000 0.000000 0.000000 -0.913559 -2.392799 -19.537038 3.923711 -3.621093 0.353958 -1.344693 1.341630 -0.655362 0.000000 0.000000 0.000000 -1.189181 -5.343630 -19.760115 1.211327 1.348078 0.322293 -3.533599 9.293000 1.546664 0.000000 0.000000 0.000000
-41.050089 81.282283 331.506040 -1.877930 3.961103 21.157950 0.041203 0.008612 -21.156747 0.365538 0.021222 -0.059059 -6.417750 15.680176 8.112022 0.000000 0.000000 0.000000 -2.403355 6.957313 -1.785392 3.809260 1.279177 1.099057 -5.868381 14.390584 -0.344585 5.412835 -10.878708 4.079607 0.000000 0.000000 0.000000 0.000000 0.000000 0.000000 -13.949947 26.644987 14.510403 -80.261818 35.606460 28.052997 1.538774 -2.124292 -5.272286 1.659808 -6.476973 0.823192 0.000000 0.000000 0.000000 0.000000 0.000000 0.000000 -0.723698 -1.920002 -21.270016 3.998449 -4.070190 0.361478 -5.799269 8.729244 2.846825 0.000000 0.000000 0.000000 -0.692950 -5.276703 -21.454958 0.613041 1.213064 0.282299 -2.952968 4.719281 2.071813 0.000000 0.000000 0.000000
-41.377062 81.700700 331.432622 -1.738309 3.762672 22.652595 0.058119 -0.057584 -22.652474 0.333810 -0.103212 -0.055040 -6.610016 15.979874 8.111531 0.000000 0.000000 0.000000 -2.406145 7.644697 -1.778136 3.735122 0.351740 1.165456 -5.878887 11.997590 -0.389637 3.891594 -7.775138 3.351081 0.000000 0.000000 0.000000 0.000000 0.000000 0.000000 -15.829773 26.396430 14.888098 -77.927864 34.817321 27.486575 1.646495 0.324865 -3.337448 1.052835 -9.550108 -1.720610 0.000000 0.000000 0.000000 0.000000 0.000000 0.000000 -0.821189 -1.491561 -22.767080 4.265859 -4.187758 0.424742 -7.656480 12.780299 3.719049 0.000000 0.000000 0.000000 -0.670341 -5.069591 -22.930406 1.356628 0.987702 0.443500 -2.876079 -0.769626 2.311625 0.000000 0.000000 0.000000
-41.696120 81.934453 331.329737 -1.547625 3.539595 23.599571 0.026862 -0.079663 -23.603857 0.280794 -0.183700 -0.053040 -6.582469 16.122958 8.036851 0.000000 0.000000 0.000000 -2.411213 7.622025 -1.724653 3.961859 0.244180 1.145289 -7.306238 9.292039 -0.620123 4.776212 -5.012654 3.424304 0.000000 0.000000 0.000000 0.000000 0.000000 0.000000 -18.610757 26.786655 15.937048 -74.302112 34.221096 25.982825 2.840509 2.778139 -1.047775 -1.551581 -13.082684 -5.481107 0.000000 0.000000 0.000000 0.000000 0.000000 0.000000 -0.998170 -1.028094 -23.733116 4.667328 -4.385835 0.502408 -8.020238 13.328715 3.679304 0.000000 0.000000 0.000000 -0.858560 -4.728451 -23.883148 1.992150 0.901971 0.550649 -2.125858 -6.347476 2.350145 0.000000 0.000000 0.000000
-41.972979 81.950907 331.180495 -1.194853 3.217292 24.346880 -0.031292 -0.098775 -24.356360 0.219888 -0.240908 -0.045092 -6.718999 16.242353 7.913829 0.000000 0.000000 0.000000 -1.972044 7.924948 -1.592125 3.337392 -0.427295 0.994391 -8.696958 6.092092 -0.932069 5.904834 -1.515141 3.469210 0.000000 0.000000 0.000000 0.000000 0.000000 0.000000 -21.876863 27.491072 17.317982 -69.905582 33.643929 23.987253 3.109091 6.008684 1.348524 0.004427 -13.744793 -4.436452 0.000000 0.000000 0.000000 0.000000 0.000000 0.000000 -1.324060 -0.591888 -24.517693 5.007488 -4.334309 0.576227 -8.053131 12.646645 3.609312 0.000000 0.000000 0.000000 -1.472390 -4.423128 -24.743132 2.887582 1.285580 0.733726 -1.618515 -10.724324 2.288138 0.000000 0.000000 0.000000
-42.339314 81.972167 330.990607 -0.899706 2.852754 25.383789 -0.052571 -0.104939 -25.394892 0.164245 -0.260271 -0.037122 -6.572767 16.060202 7.635329 0.000000 0.000000 0.000000 -1.916475 7.961384 -1.517496 3.824993 -1.496069 1.061489 -10.451008 4.766966 -1.165178 7.386364 -0.594933 3.435179 0.000000 0.000000 0.000000 0.000000 0.000000 0.000000 -25.275945 28.005452 18.751932 -64.553850 33.221831 22.043702 5.020694 7.268476 2.577883 0.173414 -12.930075 -2.864096 0.000000 0.000000 0.000000 0.000000 0.000000 0.000000 -1.463554 -0.214329 -25.563834 5.191903 -4.198773 0.628861 -7.526909 9.196440 3.674733 0.000000 0.000000 0.000000 -1.826195 -4.060645 -25.839914 3.662965 1.373788 0.889976 -2.415055 -11.976469 2.742453 0.000000 0.000000 0.000000
-42.717645 81.939855 330.784998 -0.617719 2.484343 26.451158 -0.080098 -0.096589 -26.462623 0.118096 -0.260647 -0.028909 -6.343754 15.706386 7.284332 0.000000 0.000000 0.000000 -2.178664 7.599135 -1.470561 5.173090 -2.333158 1.236697 -13.007674 4.049784 -1.391616 9.947658 0.965278 3.649018 0.000000 0.000000 0.000000 0.000000 0.000000 0.000000 -28.697064 28.580792 20.334462 -59.006302 32.777052 20.006774 7.334875 5.887693 2.068608 -1.222398 -8.946616 -0.361497 0.000000 0.000000 0.000000 0.000000 0.000000 0.000000 -1.490260 0.158846 -26.620967 5.291600 -4.182553 0.656236 -10.640893 12.513377 6.453451 0.000000 0.000000 0.000000 -2.026860 -3.678459 -26.935229 4.321706 1.225411 1.023229 -3.052355 -13.431148 3.189238 0.000000 0.000000 0.000000
